<?xml version="1.0" encoding="UTF-8"?>
<svg viewBox="0 0 966 970" xmlns="http://www.w3.org/2000/svg">
 <g fill-rule="evenodd" stroke-width=".5">
  <path d="m0 67v-67h966v970h-21l0.2-0.5q0.3-0.5 2.3-3t8.5-12.5 7-34.5-6.5-36.5-14.7-18.8q-7.8-6.7-18.3-11.2t-26.5-4.5-20.5 1.5-16 8.5-18.3 16.3q-6.7 9.2-10.2 18.2t-4 22 2 22.5 9 19l6.5 9.5 0.3 0.2 0.2 0.3 0.2 0.3 0.3 0.2 0.3 0.2 0.2 0.3 0.2 0.3 0.3 0.2 0.3 0.2 0.2 0.3 0.2 0.3 0.3 0.2 0.3 0.5 0.2 0.5h-849v-754h0.5l0.5 1.5 0.5 1.5 0.5 1.5 0.5 1.5 4.5 12q4.5 12 11.8 25.2 7.2 13.3 13.7 21.8t13 15.5 17 15 26.5 16 20 9.5 5 1.8l1 0.2-0.8 4q-0.7 4-9.2 28.5t-14.5 54-7.5 60-0.5 50 6.5 50.5 16 62.5 22 54.5 22.8 40.2q11.2 17.3 12 18 0.7 0.8 1 1l0.2 0.3 0.2 0.3 0.3 0.2 0.5 1 0.5 1 0.3 0.2 0.2 0.3 0.2 0.3 0.3 0.2 0.3 0.2 0.2 0.3 0.2 0.3 0.3 0.2 0.3 0.2 0.2 0.3 1 0.3 1 0.2 0.2-5.5q0.3-5.5 3.8-23t6.5-26 9-15.5 14.7-10.8q8.8-3.7 91.3-15.2l82.5-11.5 2-0.3 2-0.2-0.2-1-0.3-1-0.3-0.2-0.2-0.3-0.2-0.3-0.3-0.2-0.3-0.2-0.2-0.3-0.2-0.3-0.3-0.2-0.3-0.2-0.2-0.3-1-0.5-1-0.5-1-0.5q-1-0.5-77-52.2-76-51.8-75.8-53.8 0.3-2 19-41.5 18.8-39.5 38.8-34.7l20 4.7 2 0.5 2 0.5 1.5 0.3 1.5 0.2-0.2-1.5-0.3-1.5-0.5-1.5-0.5-1.5-0.3-0.2-0.2-0.3-0.2-0.3-0.3-0.2-0.5-1.5q-0.5-1.5-3-6.5t-5.5-18.5-2-29.5 6-30 25.7-17.2q20.8-3.3 34.6-12.6 13.7-9.2 35.4-24.4 21.8-15.3 55.3-100.3t42-83.3q8.5 1.8 19.7-28.2l11.3-30 0.5-2 0.5-2 0.3-0.2 0.2-0.3h-23.5q-23.5 0-39 1.5t-38.5 6-47 12-30.5 10.5-12.5 4.5-10.8-9.2q-4.7-10.8-14.7-26.3t-17.7-23.7q-7.8-8.3-16-15-8.3-6.8-22-15.6-13.8-8.7-35.8-15.7t-50.5-7-44.5 4.5-25.5 8.5-22.5 12.5-26.5 22-24.5 31-15.8 30.8l-4.7 13.2-0.5 1.5-0.5 1.5-0.5 1-0.5 1h-0.5v-67zm632 147.5l-0.5 1.5-0.3 1-0.2 1 9.5 1.2q9.5 1.3 19.5 5.8t16 10 9.2 9.8q3.3 4.2 7.3 13.7t4 22.5-1.3 16.2q-1.2 3.3-1.2 3.6v0.2l-4.8 9.5q-4.7 9.5-6.2 12.5t9 32 15 46 7 31 2.8 16.5l0.2 2.5 1.2 13q1.3 13 1.6 17.5l0.2 4.5-0.2 17q-0.3 17-2.8 37t-8 42.5-16.2 48.3q-10.8 25.7-22.6 47.4-11.7 21.8-10.7 24.8t23.5 34.5 22.8 32.5l0.2 1h0.5l0.3 0.5 0.2 0.5h0.5l0.5 1 0.5 1 0.3 0.2 0.2 0.3 0.2 0.3 0.3 0.2 0.3 0.2 0.2 0.3 0.2 0.3 0.3 0.2 0.5 1q0.5 1 27.5 38.5t30.5 53 3.5 22.5-2.7 10.2q-2.8 3.3-209.3 27.8t-211.5 23.5-77.8-90.7q-72.7-89.8-73.2-95.8t4-26 7.8-23.8q3.2-3.7 111.7-17 108.5-13.2 114.5-34.7l6-21.5-1.5-0.2q-1.5-0.3-21.5-4.6l-20-4.2-2-0.2-2-0.3-1.5-0.5-1.5-0.5-0.2-0.3-0.3-0.2-0.3-0.2-0.2-0.3-0.2-0.3q-0.3-0.2-67-45.2-66.8-45-66.6-47 0.3-2 9.6-20.8 9.2-18.7 59.7-5.4l50.5 13.2 2 0.2q2 0.3 2 0.6v0.2l15.5 3.8q15.5 3.7 17.5 4l2 0.2 0.2-1.5q0.3-1.5 1.8-6.5l1.5-5 0.5-1.5 0.5-1.5 0.5-2 0.5-2 0.3-1 0.2-1-1 0.2-1 0.3-0.2 0.3-0.3 0.2-0.3 0.2-0.2 0.3-0.2 0.3-0.3 0.2-0.3 0.2-0.2 0.3-0.2 0.3-0.3 0.2-0.3 0.2-0.2 0.3-1 0.5q-1 0.5-6 4.5t-8 4.5-7.5-1.5-11-6-14-13-10.3-17.3q-2.7-8.2 2.6-14l5.2-5.7 0.2-0.3 0.3-0.2 0.3-0.2 0.2-0.3 0.2-0.3 0.3-0.2 0.3-0.2 0.2-0.3 0.2-0.3 0.3-0.2 0.3-0.2 0.2-0.3 0.2-0.3 0.3-0.2 0.3-1 0.2-1-3.5 0.2-3.5 0.3-6.5 0.5q-6.5 0.5-15.5 1t-14.8-14.2q-5.7-14.8-5.7-29.8t2-20 25.3-8q23.2-3 23.4-8 0.3-5 20-20.8 19.8-15.7 27.8-10.2l8 5.5 0.2 0.3 0.3 0.2 0.3 0.2 0.2 0.3 0.2 0.3 0.3 0.2 0.5-1 0.5-1 0.5-1 0.5-1 0.5-1.5q0.5-1.5 34.2-88l33.8-86.5 8.5 2q8.5 2 29.3-52.5 20.7-54.5 23.4-56.3 2.8-1.7 7.8-1.2t50.5 19 47.3 21.2q1.7 2.8 0.7 7.3t-18 48.5-17.5 45.5zm155.8 613.3l-0.3 0.2-0.3 0.2-0.2 0.3-1 0.5-1 0.5h-1l-0.2-0.3-0.3-0.2-0.3-0.2-0.2-0.3-0.2-0.3-0.3-0.2-45.5-63.5q-45.5-63.5-31.5-92.5t22-53 12.5-48 6-41 0.5-47.5-6-56.5-11.5-47.5-11.5-36-0.5-24.5 6-20.5 1-21.5-5-24-11-22-13.2-15.8q-6.8-6.7-15.8-12-9-5.2-7.2-11.2 1.7-6 13.2-34t33-15 39 26 29.5 23.5 30 30.5 27 32 22.5 33.5 22 40 17 42.5 14.5 51 7.5 44 1 48-4 57.5-10.5 52.5-17.5 50-23.2 46.8q-12.8 22.7-23.6 38-10.7 15.2-22 28.7-11.2 13.5-12.2 13.5t-11.5 11.2q-10.5 11.3-13 13.8t-2.7 2.8z" fill="none" stroke="#fff"/>
  <g fill="#b1fe4c" stroke="#b1fe4c">
   <path d="m501.5 84.5h23.5l-0.2 0.3-0.3 0.2-0.5 2-0.5 2-11.3 30q-11.2 30-19.7 28.2-8.5-1.7-42 83.3t-55.3 100.3q-21.7 15.2-35.4 24.4-13.8 9.3-34.6 12.6-20.7 3.2-25.7 17.2t-6 30 2 29.5 5.5 18.5 3 6.5l0.5 1.5 0.3 0.2 0.2 0.3 0.2 0.3 0.3 0.2 0.5 1.5 0.5 1.5 0.3 1.5 0.2 1.5-1.5-0.2-1.5-0.3-2-0.5-2-0.5-20-4.7q-20-4.8-38.8 34.7-18.7 39.5-19 41.5-0.2 2 75.8 53.8 76 51.7 77 52.2l1 0.5 1 0.5 1 0.5 0.2 0.3 0.3 0.2 0.3 0.2 0.2 0.3 0.2 0.3 0.3 0.2 0.3 0.2 0.2 0.3 0.2 0.3 0.3 0.2 0.3 1 0.2 1-2 0.2-2 0.3-82.5 11.5q-82.5 11.5-91.3 15.2-8.7 3.8-14.7 10.8t-9 15.5-6.5 26-3.8 23l-0.2 5.5-1-0.2-1-0.3-0.2-0.3-0.3-0.2-0.3-0.2-0.2-0.3-0.2-0.3-0.3-0.2-0.3-0.2-0.2-0.3-0.2-0.3-0.3-0.2-0.5-1-0.5-1-0.3-0.2-0.2-0.3-0.2-0.3q-0.3-0.2-1-1-0.8-0.7-12-18-11.3-17.2-22.8-40.2t-22-54.5-16-62.5-6.5-50.5 0.5-50 7.5-60 14.5-54 9.2-28.5l0.8-4-1-0.2q-1-0.3-5-1.8t-20-9.5-26.5-16-17-15-13-15.5-13.7-21.8q-7.3-13.2-11.8-25.2l-4.5-12-0.5-1.5-0.5-1.5-0.5-1.5-0.5-1.5h-0.5v-82h0.5l0.5-1 0.5-1 0.5-1.5 0.5-1.5 4.7-13.2q4.8-13.3 15.8-30.8t24.5-31 26.5-22 22.5-12.5 25.5-8.5 44.5-4.5 50.5 7 35.8 15.7q13.7 8.8 22 15.6 8.2 6.7 16 15 7.7 8.2 17.7 23.7t14.7 26.3q4.8 10.7 10.8 9.2t12.5-4.5 30.5-10.5 47-12 38.5-6 39-1.5z"/>
   <path d="m787.8 827.8l-0.3 0.2-0.3 0.2-0.2 0.3-1 0.5-1 0.5h-1l-0.2-0.3-0.3-0.2-0.3-0.2-0.2-0.3-0.2-0.3-0.3-0.2-45.5-63.5q-45.5-63.5-31.5-92.5t22-53 12.5-48 6-41 0.5-47.5-6-56.5-11.5-47.5-11.5-36-0.5-24.5 6-20.5 1-21.5-5-24-11-22-13.2-15.8q-6.8-6.7-15.8-12-9-5.2-7.2-11.2 1.7-6 13.2-34t33-15 39 26 29.5 23.5 30 30.5 27 32 22.5 33.5 22 40 17 42.5 14.5 51 7.5 44 1 48-4 57.5-10.5 52.5-17.5 50-23.2 46.8q-12.8 22.7-23.6 38-10.7 15.2-22 28.7-11.2 13.5-12.2 13.5t-11.5 11.2q-10.5 11.3-13 13.8t-2.7 2.8z"/>
  </g>
  <path d="m411.8 616.8l0.2-0.3 2-0.3 2-0.2 37.5 7.8q37.5 7.7 37.5 8v0.2h-2l-0.5 3.8q-0.5 3.7 0.3 4.4 0.7 0.8-1 1.6-1.8 0.7-0.8 1 1 0.2-0.2 2.7-1.3 2.5-1.8 3.5l-0.5 1-0.3 0.5-0.2 0.5-6.5-1.5q-6.5-1.5-18.3 35.5-11.7 37-11.2 39.5t8 10 7.8 8l0.2 0.5h0.5l0.3 0.5 0.2 0.5v0.2q0 0.3 0.5 0.6l0.5 0.2v0.2q0 0.3 0.5 0.6l0.5 0.2-1.5-0.2q-1.5-0.3-1.5 3.2t1.2 4.2q1.3 0.8 2 2 0.8 1.3-1.2 1.6-2 0.2-2 5.2t-1.2 6q-1.3 1-0.6 1.8 0.8 0.7 0.6 1l-0.3 0.2-0.3 0.2-0.2 0.3-0.2 0.3-0.3 0.2-0.3 1-0.2 1-1 0.2-1 0.3h-1l-0.2-0.3-0.3-0.2-0.3-0.2-0.2-0.3-0.2-0.3-0.3-0.2-0.3 0.5-0.2 0.5-0.5-0.2-0.5-0.3-0.2-0.3q-0.3-0.2-19.8-19.7t-17-28l2.5-8.5 0.3-1 0.2-1-2.5 0.2-2.5 0.3-4 0.5q-4 0.5-90.5 10.5l-86.5 10-2 0.3-2 0.2v2l-2.8 11.5q-2.7 11.5 48.6 74.3 51.2 62.7 66.2 81.2t204-3.5 192.5-22.3l3.5-0.2-0.2-2.5-0.3-2.5-0.5-2-0.5-2-0.5-2.5q-0.5-2.5-1.8-5l-1.2-2.5-0.2-0.5q-0.3-0.5-0.6-0.5h-0.2l-0.2-0.5q-0.3-0.5-0.8-1.5l-0.5-1-0.3-0.2-0.2-0.3-0.2-0.3-0.3-0.2-0.3-0.2q-0.2-0.3-20-27.6l-19.7-27.2-0.3-0.2-0.2-0.3-0.2-0.3-0.3-0.2-0.3-0.2-0.2-0.3-0.2-0.3-0.3-0.2-0.3-0.2-0.2-0.3-0.2-0.3-0.3-0.2-0.3-0.2-0.2-0.3v-0.5h3v-3l1 0.2q1 0.3 1.2 0.6l0.3 0.2 0.3 0.2 0.2 0.3 0.2 0.3 0.3 0.2 0.3 0.2 0.2 0.3 0.2 0.3 0.3 0.2 0.5 1 0.5 1 0.3-0.2 0.2-0.3 0.2-0.3 0.3-0.2 0.3-0.2 0.2-0.3-0.2-0.3-0.3-0.2-0.3-0.2-0.2-0.3 0.2-0.3 0.3-0.2 0.3-0.2 0.2-0.3-0.2-0.3-0.3-0.2-0.5-2.5q-0.5-2.5-1.2-4-0.8-1.5 0.2-1.7 1-0.3 4-4.8l3-4.5-0.2-0.3-0.3-0.2v-6h1l0.3 0.5 0.2 0.5h0.5l0.5 1 0.5 1 0.3 0.2 0.2 0.3 0.2 0.3 0.3 0.2 0.3 0.2 0.2 0.3 0.2 0.3 0.3 0.2 0.5 1q0.5 1 27.5 38.5t30.5 53 3.5 22.5-2.7 10.2q-2.8 3.3-209.3 27.8t-211.5 23.5-77.8-90.7q-72.7-89.8-73.2-95.8t4-26 7.8-23.8q3.2-3.7 111.7-17 108.5-13.2 114.5-34.7l6-21.5-1.5-0.2q-1.5-0.3-21.5-4.6l-20-4.2-0.2-0.5-0.3-0.5-0.3-0.2-0.2-0.3-0.2-0.3-0.3-0.2-0.3-0.2-0.2-0.3-2-0.3-2-0.2v-5h4q4 0 4-1t2.2-2q2.3-1 3.3-2t0.7-1.2q-0.2-0.3 1.8-0.6l2-0.2 0.2-1 0.3-1 0.3-0.2z" stroke="#000"/>
  <path d="m529.8 224.5l0.2-3.5h1q1 0 1 1t13.5 5.2q13.5 4.3 15 4.8l1.5 0.5 1 0.5 1 0.5 0.2 0.3 0.3 0.2v2l-0.3 0.2-0.2 0.3-0.2 0.3-0.3 0.2-5.5 8q-5.5 8-8.5 15t-3 21.5 2.5 21 3 7.5l0.5 1 0.3 0.2 0.2 0.3 0.5 0.3 0.5 0.2 0.2 1 0.3 1 0.5 1 0.5 1 4.3 5.8q4.2 5.7 14.7 12.2t15 8 30.5 1.5 31.5-1.3q5.5-1.2 13.7 21.8 8.3 23 14.3 47t9 52.5 2 49.5-5.5 45-12.5 47-23 52-21.7 38.8q-6.8 9.7-7 10l-0.3 0.2-0.5 1-0.5 1-0.3 0.2-0.2 0.3-0.2 0.3-0.3 0.2-0.5 1-0.5 1-0.3-0.2-0.2-0.3-0.2-0.3-0.3-0.2-0.5-1-0.5-1-0.5-1-0.5-1-0.5-1q-0.5-1-3.8-6.5l-3.2-5.5-0.2-0.5-0.3-0.5-0.5-1-0.5-1-0.5-1-0.5-1-0.5-1q-0.5-1-5-9t-5.5-12 4-20.5 2.5-18.5 8-23 16.5-40 8.5-36 2.5-39.5-2.5-35-8-25.5-13.5-21-18.7-13.8l-10.8-5.7-0.2-0.3-0.3-0.2-0.3 0.2-0.2 0.3-0.2 0.3q-0.3 0.2-3.6 7.7-3.2 7.5-52.7-10.3l-49.5-17.7v-1l0.2-0.3 0.3-0.2 0.3-0.2q0.2-0.3 27-69 26.7-68.8 27-72.3z" fill="#3f9dfd" stroke="#3f9dfd"/>
  <path d="m945.2 969.5l-0.2 0.5h-96l-0.2-0.5-0.3-0.5-0.3-0.2-0.2-0.3-0.2-0.3-0.3-0.2-0.3-0.2-0.2-0.3-0.2-0.3-0.3-0.2-0.3-0.2-0.2-0.3-0.2-0.3-0.3-0.2-6.5-9.5q-6.5-9.5-9-19t-2-22.5 4-22 10.2-18.2q6.8-9.3 18.3-16.3t16-8.5 20.5-1.5 26.5 4.5 18.3 11.2q7.7 6.8 14.7 18.8t6.5 36.5-7 34.5-8.5 12.5-2.3 3z" fill="#b1fe4c" stroke="#b1fe4c"/>
  <path d="m533.2 436l5.8-15 19.5 7q19.5 7 20.7 18 1.3 11 0.8 27t-6 39-15.5 45-14 29.5-4.3 7.7l-0.2 0.3h-1q-1 0-7-2.7l-6-2.8v-0.5l-1-0.5-1-0.5-0.2-0.3-0.3-0.2-0.3-0.2-0.2-0.3-1-0.5q-1-0.5-25-12.8l-24-12.2 0.2-1.5q0.3-1.5 10.6-21.7 10.2-20.3 20.2-18.8t20-15.8l10-17.2v-1l0.5-0.2q0.5-0.3 0.7-0.6l0.3-0.2 0.5-1 0.5-1 0.5-1 0.5-1 0.3-0.2 0.2-0.3 0.2-0.3 0.3-0.2 0.5-1 0.5-1 0.5-1 0.5-1v-0.5q0-0.5-1.5-3.5t-6-9-5-8.5 5.2-17.5z" fill="#fefefe" stroke="#fefefe"/>
  <g fill="#bedcfe" stroke="#bedcfe">
   <path d="m642.5 122.8l1.5 0.2-0.2 2q-0.3 2-3.8 11t-17.2 45.5q-13.8 36.5-19.3 36.3-5.5-0.3-36.3-12l-30.7-11.8 7.5-21.5q7.5-21.5 17.8-48.5 10.2-27 30.7-19.8 20.5 7.3 34.5 12.8t15.5 5.8z"/>
   <path d="m676.8 280l0.2 1-0.2 4q-0.3 4-1.3 7.5t-6.5 11.5-13.2 12.8q-7.8 4.7-14.8 5.2t-12-0.5-11.5-4.5-11.7-10.2q-5.3-6.8-7.6-15.8l-2.2-9 1.8-8.5q1.7-8.5 6.4-15.7 4.8-7.3 10.8-11.3t17-5.5 19 2.5 14.8 11.3q6.7 7.2 8.2 12.2t2 8.5 0.8 4.5z"/>
   <path d="m477.5 649.5l6.5 1.5 2 0.2 2 0.3 16.5 3.5q16.5 3.5 18 3.8l1.5 0.2-1.8 3q-1.7 3-2 4l-0.2 1-2.2 4.5q-2.3 4.5-8.8 49t-7 48l-0.5 3.5-0.3 3-0.2 3-1-0.2-1-0.3-0.2-0.3-0.3-0.2-0.3-0.2-0.2-0.3-0.2-0.3-0.3-0.2-0.3-0.2-0.2-0.3-0.2-0.3-0.3-0.2-0.3-0.2-0.2-0.3-0.2-0.3-0.3-0.2-0.3-0.2-0.2-0.3-0.2-0.3q-0.3-0.2-4-3.2-3.8-3-12.6-12.5l-8.7-9.5-0.3-0.2-0.2-0.3-0.2-0.3-0.3-0.2-0.3-0.2q-0.2-0.3-0.7-0.6l-0.5-0.2-0.2-0.5q-0.3-0.5-0.6-0.5h-0.2l-0.2-0.5q-0.3-0.5-0.6-0.5h-0.2l-0.2-0.5-0.3-0.5h-0.5l-0.2-0.5q-0.3-0.5-7.8-8t-8-10 11.2-39.5q11.8-37 18.3-35.5z"/>
  </g>
  <path d="m412 716l4-0.5 2.5-0.3 2.5-0.2-0.2 1-0.3 1-2.5 8.5q-2.5 8.5 17 28t19.8 19.7l0.2 0.3 0.5 0.3 0.5 0.2v0.5l0.2 0.3 0.3 0.2 0.3 0.2 0.2 0.3 0.2 0.3 0.3 0.2 0.3 0.2 0.2 0.3 26.5 26.5q26.5 26.5 40.5 25t62.5-9 51.5-7.8l3-0.2 0.5-0.2q0.5-0.3 0.5-0.6v-0.2l9.5-1.2q9.5-1.3 12.5-1.8l3-0.5 1-0.5 1-0.5-0.2-0.3-0.3-0.2-0.3-0.2-0.2-0.3-0.2-0.3-0.3-0.2-0.5-1-0.5-1-0.5-1q-0.5-1-17.5-32l-17-31-0.3-0.2-0.2-0.3 0.2-0.3 0.3-0.2 0.3-0.2 0.2-0.3 0.2-0.3 0.3-0.2 0.3-0.2 0.2-0.3 0.2-0.3 0.3-0.2 0.5-1 0.5-1 0.3-0.2 0.2-0.3 0.2-0.3 0.3-0.2 0.5-1 0.5-1 0.3-0.2 0.2-0.3 0.2-0.3 0.3-0.2 0.3-0.2 0.2-0.3h2l0.2 0.3 0.3 0.2 0.3 0.2 0.2 0.3 0.2 0.3 0.3 0.2 0.3 0.2 0.2 0.3 0.2 0.3 0.3 0.2 23.5 32.5q23.5 32.5 23.8 33l0.2 0.5v0.5l0.2 0.3 0.3 0.2 0.3 0.2 0.2 0.3 0.2 0.3 0.3 0.2 0.3 0.2 0.2 0.3 0.2 0.3 0.3 0.2 0.3 0.2 0.2 0.3 0.2 0.3 0.3 0.2 19.7 27.2q19.8 27.3 20 27.6l0.3 0.2 0.3 0.2 0.2 0.3 0.2 0.3 0.3 0.2 0.3 1 0.2 1h2v2l-1-0.2-1-0.3-0.2-0.3-0.3-0.2-0.3 0.2-0.2 0.3-4.5 0.5q-4.5 0.5-179.5 21t-181 20.8q-6 0.2-13-9-7-9.3-64.8-81l-57.7-71.8-0.3-0.2-0.2-0.3-0.2-0.3-0.3-0.2-0.3-0.2-0.2-0.3-1-0.3-1-0.2v-2l2-0.2 2-0.3 86.5-10q86.5-10 90.5-10.5z" fill="#409dfe" stroke="#409dfe"/>
  <path d="m576.8 693.5l0.2 0.5v0.5l0.2 0.3 0.3 0.2 0.5 1 0.5 1 0.5 1 0.5 1 22 40q22 40 22.5 41l0.5 1 0.3 0.2 0.2 0.3 0.2 0.3 0.3 0.2v2l-0.3 0.2-0.2 0.3-2.5 0.5q-2.5 0.5-8.5 1.5l-6 1-0.5 0.3-0.5 0.2-3 0.2q-3 0.3-24.5 3.8t-37.5 5.5l-16 2 0.2-0.3 0.3-0.2 0.5-4q0.5-4 6.8-54l6.2-50h0.5l2.3-6.2q2.2-6.3 6.2-8.8t9.5-2 8.3 3.2q2.7 2.8 6.2 9.3t3.8 7z" fill="#3f9dfd" stroke="#3f9dfd"/>
  <path d="m513.8 479.8l-0.3 0.2-0.3 1-0.2 1-0.5 0.2q-0.5 0.3-0.5 0.6v0.2l-0.2 1q-0.3 1-1.3 2.5t-3.7 6q-2.8 4.5-24.8-2.3l-22-6.7-1-0.5-1-0.5-0.2-0.3-0.3-0.2-0.3-0.2-0.2-0.3 0.2-0.3 0.3-0.2 0.3-0.2 0.2-0.3 0.2-0.3q0.3-0.2 2.3-1.7t2.3-4.5l0.2-3-0.2-1.5q-0.3-1.5-1.8-6t-6.5-13-11.3-14.7q-6.2-6.3-14.7-11.8t-11.5-6.5-7.2 3.3l-4.3 4.2-0.3 0.2-0.2 0.3-0.2 0.3-0.3 0.2-0.3 0.2-0.2 0.3-1 0.3-1 0.2-0.2-1-0.3-1-0.5-2-0.5-2-3-11.5q-3-11.5-2.5-16.5t8.8-11.2q8.2-6.3 10.4-5.6 2.3 0.8 17.6 13.6 15.2 12.7 27.7 23.4 12.5 10.8 22.5 22.3t13.8 15q3.7 3.5 10.2 11t8 9.5 0.8 5.2q-0.8 3.3-1 3.6z" fill="#3f9dfc" stroke="#3f9dfc"/>
  <path d="m228.2 750.5l2.8-11.5 1 0.2 1 0.3 0.2 0.3 0.3 0.2 0.3 0.2 0.2 0.3 0.2 0.3 0.3 0.2 57.7 71.8q57.8 71.7 64.8 81 7 9.2 13 9 6-0.3 181-20.8t179.5-21l4.5-0.5 1-0.3 1-0.2v0.2q0 0.3 0.5 0.6l0.5 0.2 1.2 2.5q1.3 2.5 1.8 5l0.5 2.5 0.5 2 0.5 2 0.3 2.5 0.2 2.5-3.5 0.2q-3.5 0.3-192.5 22.3t-204 3.5-66.2-81.2q-51.3-62.8-48.6-74.3z" fill="#fcfdfc" stroke="#fcfdfc"/>
  <path d="m632 214.5l-0.5 1.5-0.3 1-0.2 1 9.5 1.2q9.5 1.3 19.5 5.8t16 10 9.2 9.8q3.3 4.2 7.3 13.7t4 22.5-1.3 16.2q-1.2 3.3-1.2 3.6v0.2h-0.2q-0.3 0-2-1.5-1.8-1.5-1.8-2.5t-1-0.8q-1 0.3-1.5-3.4-0.5-3.8-1.5-3.8t-1.5-2-1.5-2-1-1-1-1-1.8-2q-0.7-2-1.4-1l-0.8 1-0.2-1q-0.3-1-0.8-4.5t-2-8.5-8.2-12.2q-6.8-7.3-14.8-11.3t-19-2.5-17 5.5-10.8 11.3q-4.7 7.2-6.4 15.7l-1.8 8.5h-2l-0.2 1.5-0.3 1.5-0.3 0.2-0.2 0.3-0.2 0.3-0.3 0.2-0.3-0.2-0.2-0.3-0.2-0.3-0.3-0.2-0.3 1-0.2 1-1 0.2-1 0.3-0.2 0.3-0.3 0.2-0.3-0.2-0.2-0.3-0.2-0.3-0.3-0.2-0.3 0.2-0.2 0.3-0.2 0.3-0.3 0.2-0.3-0.2-0.2-0.3-0.2-0.3-0.3-0.2-0.3 0.2-0.2 0.3-0.2 0.3-0.3 0.2-0.3-0.2-0.2-0.3-0.2-0.3-0.3-0.2h-0.5l-0.2-1-0.3-1v-3.5q0-3.5 1-9t6-15.5l5-10 0.5-1 0.5-1 0.3-0.2 0.2-0.3 0.2-0.3 0.3-0.2 0.3-0.2 0.2-0.3 0.2-0.3 0.3-0.2 0.3-0.2 0.2-0.3 0.2-0.3 0.3-0.2v-2l-0.3 0.2-0.2 0.3-1.5 0.5-1.5 0.5-1.5 0.5-1.5 0.5-6.8 4.3q-6.7 4.2-11.7 12.2t-6 12.5-0.5 13 2.5 13 2.3 4.7l0.2 0.3 0.2 0.3 0.3 0.2 0.3 1 0.2 1-1-0.2q-1-0.3-2.5 0.7t-2.5 0.5-2.2 1.2q-1.3 1.8-3.6 1.8-2.2 0-2.4 2l-0.3 2-0.3-0.2q-0.2-0.3-1.7-0.8l-1.5-0.5-0.2-0.3-0.3-0.2-0.3 0.2-0.2 0.3v0.5l-0.5-0.2-0.5-0.3-0.2-0.3-0.3-0.2-0.5-1q-0.5-1-3-7.5t-2.5-21 3-21.5 8.5-15l5.5-8 0.3-0.2 0.2-0.3 0.2-0.3 0.3-0.2v-2l-0.3-0.2-0.2-0.3-1-0.5-1-0.5-1.5-0.5q-1.5-0.5-15.5-5.2l-14-4.8-0.2-0.5q-0.3-0.5-0.6-0.5h-0.2l-1-0.2q-1-0.3-6.5-2.3l-5.5-2-0.2-0.3-0.3-0.2-27.5 70.5q-27.5 70.5-28 72l-0.5 1.5-0.3 1-0.2 1 1.5 0.2 1.5 0.3 2 0.5 2 0.5 1 0.5 1 0.5 1 0.5 1 0.5 1 0.5 1 0.5 1 0.3 1 0.2v0.5l49.5 17.7q49.5 17.8 52.7 10.3 3.3-7.5 3.6-7.7l0.2-0.3 0.2-0.3 0.3-0.2 0.3 0.2 0.2 0.3 10.8 5.7q10.7 5.8 18.7 13.8t13.5 21 8 25.5 2.5 35-2.5 39.5-8.5 36-16.5 40-8 23-2.5 18.5-4 20.5 5.5 12 5 9l0.5 1 0.5 1 0.5 1 0.5 1 0.5 1 0.3 0.5 0.2 0.5v0.5l-1.5 0.5-1.5 0.5-1 0.5-1 0.5h-2l-0.2-0.3q-0.3-0.2-2-2-1.8-1.7-2.3 1.6-0.5 3.2-2.5 1.4-2-1.7-2.8-0.4-0.7 1.2-2 1.7-1.2 0.5-1.2-0.5t-2-0.2l-2 0.7-0.2-0.3-0.3-0.2-0.3-0.2-0.2-0.3-0.2-0.3-0.3-0.2-0.3-0.2-0.2-0.3-0.2-0.3-0.3-0.2-0.3-0.2-0.2-0.3-1.5-0.3-1.5-0.2-0.2-0.5q-0.3-0.5-3.8-7t-6.2-9.3q-2.8-2.7-8.3-3.2t-9.5 2-6.2 8.8l-2.3 6.2h-0.5l-0.2-0.5q-0.3-0.5-0.8 0l-0.5 0.5-0.5-1.5q-0.5-1.5-1-0.5l-0.5 1-0.3-0.2-0.2-0.3-0.2-0.3-0.3-0.2-0.5 1-0.5 1-0.3 0.2-0.2 0.3-0.2 0.3-0.3 0.2-0.3-2q-0.2-2-1.2-1.8-1 0.3-1.8-3-0.7-3.2-2-3.4-1.2-0.3-2-2-0.7-1.8-0.2-3.8t-0.2-2.8q-0.8-0.7-2.3-0.4-1.5 0.2-1.3-0.8 0.3-1-0.2-3t-1.2-2h-0.8l0.2-1q0.3-1 2-4l1.8-3-1.5-0.2q-1.5-0.3-18-3.8l-16.5-3.5-2-0.3-2-0.2 0.2-0.5 0.3-0.5 0.5-1q0.5-1 1.8-3.5 1.2-2.5 0.2-2.7-1-0.3 0.8-1 1.7-0.8 1-1.6-0.8-0.7-0.3-4.4l0.5-3.8h2l39 7.2q39 7.3 41.5 7.8l2.5 0.5h2l0.2-0.3 0.3-0.2 0.5-3 0.5-3v-2l-0.3-0.2-0.2-0.3-2-0.5-2-0.5-2-0.5q-2-0.5-80.5-19l-78.5-18.5-1.5-0.3-1.5-0.2v-0.5l2-0.3 2-0.2 0.2-1 0.3-1 0.3-0.2 0.2-0.3-1-0.5-1-0.5 1-0.3 1-0.2 0.2-1 0.3-1 0.3-0.2 0.2-0.3 0.2-0.3 0.3-0.2 0.3-1 0.2-1 1-0.2 1-0.3-0.2-0.3-0.3-0.2-0.3-0.2-0.2-0.3v-0.5l46 10.2q46 10.3 48 10.8l2 0.5 2 0.5 2 0.5 1.5 0.5 1.5 0.5h2l-0.2-0.3-0.3-0.2-0.3-0.2-0.2-0.3-1-0.5-1-0.5-1-0.5-1-0.5-1-0.5-1-0.5-1-0.5q-1-0.5-3.2-1.8l-2.3-1.2-0.3-0.2-0.2-0.3-1-0.5-1-0.5-1-0.5-1-0.5v-0.5l2-0.2 2-0.3 0.2-0.3 0.3-0.2 0.3-1 0.2-1 4.8-2q4.7-2 5-3 0.2-1 1.2-1.2l1-0.3 0.2-0.3 0.3-0.2 0.3-0.2 0.2-0.3 0.2-0.3 0.3-0.2 0.3 0.2 0.2 0.3h0.5q0.5 0 1.5-0.3l1-0.2 6 2.8q6 2.7 7 2.7h1l0.2-0.3q0.3-0.2 4.3-7.7t14-29.5 15.5-45 6-39-0.8-27q-1.2-11-20.7-18l-19.5-7-5.8 15q-5.7 15-5.2 17.5t5 8.5 6 9 1.5 3.5v0.5l-0.5 1-0.5 1-0.5 1-0.5 1-0.3 0.2-0.2 0.3-0.2 0.3-0.3 0.2-0.5 1-0.5 1-0.5 1-0.5 1-0.5 1-0.5 1h-0.5l-0.5-0.2-0.5-0.3-1-0.5q-1-0.5-3.5-1.2-2.5-0.8-2.7-1.8-0.3-1-0.8 0t-2-1-3.8-1q-2.2 1-2.4 0-0.3-1-1-0.2l-0.8 0.7-0.2 0.3-0.3 0.2-0.3 1-0.2 1h-2l0.2-1 0.3-1 0.3-0.2 0.2-0.3 0.2-0.3 0.3-0.2 0.3-0.2q0.2-0.3 1-3.6 0.7-3.2-0.8-5.2t-8-9.5-10.2-11q-3.8-3.5-13.8-15t-22.5-22.3q-12.5-10.7-27.7-23.4-15.3-12.8-17.6-13.6-2.2-0.7-10.4 5.6-8.3 6.2-8.8 11.2t2.5 16.5l3 11.5 0.5 2 0.5 2 0.3 1 0.2 1 1-0.2 1-0.3 0.2-0.3 0.3-0.2 0.3-0.2 0.2-0.3 0.2-0.3 0.3-0.2 4.3-4.2q4.2-4.3 7.2-3.3t11.5 6.5 14.7 11.8q6.3 6.2 11.3 14.7t6.5 13 1.8 6l0.2 1.5-1.5 2.2q-1.5 2.3-2.5 2.6-1 0.2-1 1.2t-2.2 1q-2.3 0-4 8.8-1.8 8.7-3.3 9-1.5 0.2-1.5 1.2t-1 1.2q-1 0.3-1.2 0.6l-0.3 0.2-0.3 0.2-0.2 0.3 0.2 0.3 0.3 0.2 0.3 2.5 0.2 2.5-2.2 9.5q-2.3 9.5-2.6 10.5l-0.2 1h-0.5l-0.3 0.2-0.2 0.3-0.2 0.3-0.3 0.2-0.3 0.2-0.2 0.3-0.2 0.3-0.3 0.2-0.5-1-0.5-1-0.3-0.2-0.2-0.3-1-0.3-1-0.2v2h-2l-0.2 1q-0.3 1-1.3 7.5t-15.7 7.7l-14.8 1.3-0.2 0.3-0.3 0.2-0.5 1-0.5 1-0.3 1.5-0.2 1.5-1 0.2-1 0.3-1 0.3-1 0.2-2-0.2q-2-0.3-15-3.8l-13-3.5v-0.5l-0.2-0.5-0.3-0.5v-3l0.3-0.2 0.2-0.3 2.5-0.3q2.5-0.2 3.3-5.7 0.7-5.5 4-6l3.2-0.5v0.2q0 0.3 2 0.6l2 0.2 15.5 3.8q15.5 3.7 17.5 4l2 0.2 0.2-1.5q0.3-1.5 1.8-6.5l1.5-5 0.5-1.5 0.5-1.5 0.5-2 0.5-2 0.3-1 0.2-1-1 0.2-1 0.3-0.2 0.3-0.3 0.2-0.3 0.2-0.2 0.3-0.2 0.3-0.3 0.2-0.3 0.2-0.2 0.3-0.2 0.3-0.3 0.2-0.3 0.2-0.2 0.3-1 0.5q-1 0.5-6 4.5t-8 4.5-7.5-1.5-11-6-14-13-10.3-17.3q-2.7-8.2 2.6-14l5.2-5.7 0.2-0.3 0.3-0.2 0.3-0.2 0.2-0.3 0.2-0.3 0.3-0.2 0.3-0.2 0.2-0.3 0.2-0.3 0.3-0.2 0.3-0.2 0.2-0.3 0.2-0.3 0.3-0.2 0.3-1 0.2-1-3.5 0.2-3.5 0.3-6.5 0.5q-6.5 0.5-15.5 1t-14.8-14.2q-5.7-14.8-5.7-29.8t2-20 25.3-8q23.2-3 23.4-8 0.3-5 20-20.8 19.8-15.7 27.8-10.2l8 5.5 0.2 0.3 0.3 0.2 0.3 0.2 0.2 0.3 0.2 0.3 0.3 0.2 0.5-1 0.5-1 0.5-1 0.5-1 0.5-1.5q0.5-1.5 34.2-88l33.8-86.5 8.5 2q8.5 2 29.3-52.5 20.7-54.5 23.4-56.3 2.8-1.7 7.8-1.2t50.5 19 47.3 21.2q1.7 2.8 0.7 7.3t-18 48.5-17.5 45.5zm10.5-91.7l1.5 0.2-0.2 2q-0.3 2-3.8 11t-17.2 45.5q-13.8 36.5-19.3 36.3-5.5-0.3-36.3-12l-30.7-11.8 7.5-21.5q7.5-21.5 17.8-48.5 10.2-27 30.7-19.8 20.5 7.3 34.5 12.8t15.5 5.8zm-258.5 313.2l0.5 1 0.3 1.5 0.2 1.5-2 0.2-2 0.3-8.5 0.5q-8.5 0.5-17.5 1.8-9 1.2-10.8-3.8-1.7-5-2.4-14.5l-0.8-9.5 17.5-2.5q17.5-2.5 21.3 10 3.7 12.5 4.2 13.5zm216.5 29.5v-25.5l2.5 6q2.5 6 4 16t1 29-5 42-10.5 38-12.5 26.5-7 12.5l-0.5 1-0.3 0.2-0.2 0.3h-1l-1-0.5-1-0.5-1-0.5-1-0.5-1-0.5-1-0.5-1-0.5-1-0.5-1-0.5-1-0.5-1-0.5-1-0.5-0.2-0.3-0.3-0.2v-2l0.3-0.2 0.2-0.3 0.2-0.3q0.3-0.2 10.8-21.2t16-35.5 10-34.5 4.5-45.5zm-189.7-15.5q6.2-8 9.7-6.8 3.5 1.3 7.7 6 4.3 4.8 8.3 11.8t-16.7 24.2q-20.8 17.3-25.3 14.8t-8.7-7.8q-4.3-5.2-3.6-7.4 0.8-2.3 7.8-11 7-8.8 10.8-12.3 3.7-3.5 10-11.5zm-43.6 90.2q0.3-0.2 0.6 0 0.2 0.3-0.3 0.3t-0.3-0.3z" fill="#020103" stroke="#020103"/>
  <path d="m693.8 301h0.2l-4.8 9.5q-4.7 9.5-6.2 12.5t9 32 15 46 7 31 2.8 16.5l0.2 2.5v1.5q0 1.5-1 1.5t-1.5 5.2q-0.5 5.3 0 6.6 0.5 1.2-1.3 1.2-1.7 0-1.2 5t1.2 5.8q0.8 0.7 1.8 3.2t1.8 1.8q0.7-0.8 1.7 1.2t1.3 2h0.2l-0.2 17q-0.3 17-2.8 37t-8 42.5-16.2 48.3q-10.8 25.7-22.6 47.4-11.7 21.8-10.7 24.8t24 35 23.3 33l0.2 1-1.2 3.5q-1.3 3.5-3.6 7.3-2.2 3.7-3.2 4-1 0.2-0.2 1.7 0.7 1.5 1.2 4l0.5 2.5 0.3 0.2 0.2 0.3-0.2 0.3-0.3 0.2-0.3 0.2-0.2 0.3 0.2 0.3 0.3 0.2 0.3 0.2 0.2 0.3-0.2 0.3-0.3 0.2-0.3 0.2-0.2 0.3-0.2 0.3-0.3 0.2-0.5-1-0.5-1-0.3-0.2-0.2-0.3-0.2-0.3-0.3-0.2-0.3-0.2-0.2-0.3-0.2-0.3-0.3-0.2-0.3 0.2-0.2 0.3-1 0.5-1 0.5-1.5 0.3-1.5 0.2-0.2-0.5q-0.3-0.5-23.8-33l-23.5-32.5-0.3-0.2-0.2-0.3-0.2-0.3-0.3-0.2-0.3-0.2-0.2-0.3-0.2-0.3-0.3-0.2-0.3-0.2-0.2-0.3h-2l-0.2 0.3-0.3 0.2-0.3 0.2-0.2 0.3-0.2 0.3-0.3 0.2-0.5 1-0.5 1-0.3 0.2-0.2 0.3-0.2 0.3-0.3 0.2-0.5 1-0.5 1-0.3 0.2-0.2 0.3-0.2 0.3-0.3 0.2-0.3 0.2-0.2 0.3-0.2 0.3-0.3 0.2-0.3 0.2-0.2 0.3 0.2 0.3 0.3 0.2 17 31q17 31 17.5 32l0.5 1 0.5 1 0.5 1 0.3 0.2 0.2 0.3 0.2 0.3 0.3 0.2 0.3 0.2 0.2 0.3-1 0.5-1 0.5-3 0.5q-3 0.5-13 2.2l-10 1.8-0.2-1q-0.3-1-0.6-1.2l-0.2-0.3-0.2-0.3-0.3-0.2v-2l0.3-0.2 0.2-0.3-1.5-0.5-1.5-0.5-1.5-0.5q-1.5-0.5-6.5-2.5t-9-3l-4-1 3-0.5 3-0.5-2.5-0.5q-2.5-0.5-6.5-1.5l-4-1-0.2-0.3-0.3-0.2-0.3 0.2-0.2 0.3-0.2 0.3-0.3 0.2v-2l0.3-0.2 0.2-0.3 0.2-0.3 0.3-0.2 0.3-1 0.2-1-1.5-0.2-1.5-0.3v-0.5l0.5-0.2 0.5-0.3 6-1q6-1 8.5-1.5l2.5-0.5 0.2-0.3 0.3-0.2v-2l-0.3-0.2-0.2-0.3-0.2-0.3-0.3-0.2-0.5-1q-0.5-1-22.5-41l-22-40-0.5-1-0.5-1-0.5-1-0.5-1-0.3-0.2-0.2-0.3v-0.5l1.5 0.2 1.5 0.3 0.2 0.3 0.3 0.2 0.3 0.2 0.2 0.3 0.2 0.3 0.3 0.2 0.3 0.2 0.2 0.3 0.2 0.3 0.3 0.2 0.3 0.2 0.2 0.3 2-0.7q2-0.8 2 0.2t1.2 0.5q1.3-0.5 2-1.7 0.8-1.3 2.8 0.4 2 1.8 2.5-1.4 0.5-3.3 2.3-1.6 1.7 1.8 2 2l0.2 0.3h2l1-0.5 1-0.5 1.5-0.5 1.5-0.5v-0.5l3.2 5.5q3.3 5.5 3.8 6.5l0.5 1 0.5 1 0.5 1 0.5 1 0.5 1 0.3 0.2 0.2 0.3 0.2 0.3 0.3 0.2 0.5-1 0.5-1 0.3-0.2 0.2-0.3 0.2-0.3 0.3-0.2 0.5-1 0.5-1 0.3-0.2q0.2-0.3 7-10 6.7-9.8 21.7-38.8t23-52 12.5-47 5.5-45-2-49.5-9-52.5-14.3-47q-8.2-23-13.7-21.8-5.5 1.3-31.5 1.3t-30.5-1.5-15-8-14.7-12.2l-4.3-5.8-0.5-1-0.5-1-0.3-1-0.2-1v-0.5l0.2-0.3 0.3-0.2 0.3 0.2 0.2 0.3 1.5 0.5q1.5 0.5 1.7 0.8l0.3 0.2 0.3-2q0.2-2 2.4-2 2.3 0 3.6-1.8 1.2-1.7 2.2-1.2t2-0.5 2-1.3l1-0.2v0.2q0 0.3 0.5 0.6l0.5 0.2 5 5.2q5 5.3 7.5 6.8t4 2l1.5 0.5 1 0.5 1 0.5 1.5 0.5 1.5 0.5h4l-0.2-0.3-0.3-0.2-0.3-0.2-0.2-0.3-0.2-0.3-0.3-0.2-0.3-0.2-0.2-0.3-0.2-0.3-0.3-0.2-0.3-0.2-0.2-0.3-0.2-0.3-0.3-0.2-0.3-0.2-0.2-0.3-0.2-0.3-0.3-0.2-0.3-0.2-0.2-0.3-0.2-0.3-0.3-0.2-0.3-0.2q-0.2-0.3-4.4-8-4.3-7.8-5.6-14.3l-1.2-6.5h0.5l0.3 0.2 0.2 0.3 0.2 0.3 0.3 0.2 0.3-0.2 0.2-0.3 0.2-0.3 0.3-0.2 0.3 0.2 0.2 0.3 0.2 0.3 0.3 0.2 0.3-0.2 0.2-0.3 0.2-0.3 0.3-0.2 0.3 0.2 0.2 0.3 0.2 0.3 0.3 0.2 0.3-0.2 0.2-0.3 1-0.3 1-0.2 0.2-1 0.3-1 0.3 0.2 0.2 0.3 0.2 0.3 0.3 0.2 0.3-0.2 0.2-0.3 0.2-0.3 0.3-0.2 0.3-1.5 0.2-1.5h2l2.2 9q2.3 9 7.6 15.8 5.2 6.7 11.7 10.2t11.5 4.5 12 0.5 14.8-5.2q7.7-4.8 13.2-12.8t6.5-11.5 1.3-7.5l0.2-4 0.8-1q0.7-1 1.4 1 0.8 2 1.8 2t1 1 1 1 1.5 2 1.5 2 1.5 3.8q0.5 3.7 1.5 3.4 1-0.2 1 0.8t1.8 2.5q1.7 1.5 2 1.5z" fill="#010001" stroke="#010001"/>
  <path d="m286.8 524.8l0.2-0.3h2l1 0.5 1 0.5 0.2 0.3 0.3 0.2 0.3 0.2 0.2 0.3 58 36q58 36 58.5 36.3l0.5 0.2 1.5 0.2 1.5 0.3 78.5 18.5q78.5 18.5 80.5 19l2 0.5 2 0.5 2 0.5 0.2 0.3 0.3 0.2v2l-0.5 3-0.5 3-0.3 0.2-0.2 0.3h-2l-2.5-0.5q-2.5-0.5-41.5-7.8l-39-7.2v-0.2q0-0.3-37.5-8l-37.5-7.8v-0.5l-2.5-0.5-2.5-0.5-2.5-0.5q-2.5-0.5-4.5-1t-18.5-11.5-57-39l-40.5-28-1-0.5-1-0.5-0.2-0.3-0.3-0.2-0.3-0.2-0.2-0.3-0.2-0.3-0.3-0.2v-2l0.5-1 0.5-1 0.5-1.5 0.5-1.5 0.3-0.2z" fill="#bedbf9" stroke="#bedbf9"/>
  <path d="m410.8 450q6.2-8 9.7-6.8 3.5 1.3 7.7 6 4.3 4.8 8.3 11.8t-16.7 24.2q-20.8 17.3-25.3 14.8t-8.7-7.8q-4.3-5.2-3.6-7.4 0.8-2.3 7.8-11 7-8.8 10.8-12.3 3.7-3.5 10-11.5z" fill="#bedcfc" stroke="#bedcfc"/>
  <path d="m489 286.5l27.5-70.5 0.3 0.2 0.2 0.3 5.5 2q5.5 2 6.5 2.3l1 0.2v0.2q0 0.3 0.5 0.6l0.5 0.2-16.2 43q-16.3 43-27.6 71.8-11.2 28.7-11.4 29l-0.3 0.2-0.3 0.2-0.2 0.3v0.5l-1-0.2-1-0.3-1-0.5-1-0.5-1-0.5-1-0.5-1-0.5-1-0.5-2-0.5-2-0.5-1.5-0.3-1.5-0.2 0.2-1 0.3-1 0.5-1.5q0.5-1.5 28-72z" fill="#fbfcfb" stroke="#fbfcfb"/>
  <path d="m447.2 501.2l0.3-0.2 10.7 3.8q10.8 3.7 12.3 4.2l1.5 0.5 1 0.3 1 0.2-0.2 1-0.3 1-9.7 17.2q-9.8 17.3-13.3 17.3h-3.5l-1-0.5-1-0.5-1-0.5-1-0.5-1.5-0.5-1.5-0.5-1-0.3-1-0.2v-1q0-1-1-1h-1l0.2-2q0.3-2 1.8-6.5l1.5-4.5 0.3-1 0.2-1 0.2-1q0.3-1 2.6-10.5l2.2-9.5h0.5l0.5-1.5 0.5-1.5 0.3-0.2 0.2-0.3 0.2-0.3z" fill="#bedcfc" stroke="#bedcfc"/>
  <path d="m362 542.8l2 0.2v0.5l13 3.5q13 3.5 15 3.8l2 0.2v0.5l2 0.5 2 0.5 15.2 4.3q15.3 4.2 52 23.4 36.8 19.3 37.8 19.6l1 0.2v0.5l1 0.5 1 0.5 1 0.5 1 0.5 0.2 0.3 0.3 0.2 2.3 1.2q2.2 1.3 3.2 1.8l1 0.5 1 0.5 1 0.5 1 0.5 1 0.5 1 0.5 1 0.5 0.2 0.3 0.3 0.2 0.3 0.2 0.2 0.3h-2l-1.5-0.5-1.5-0.5-2-0.5-2-0.5-2-0.5q-2-0.5-48-10.8l-46-10.2-2-0.2q-2-0.3-9.2-4.6-7.3-4.2-35.6-22.4l-28.2-18.3-0.2-0.3-0.3-0.2-3.3-1.5q-3.2-1.5-3.2-2.5t12.5 2.2q12.5 3.3 14.5 3.6z" fill="#3f9dfb" stroke="#3f9dfb"/>
  <path d="m600.5 465.5v-25.5l2.5 6q2.5 6 4 16t1 29-5 42-10.5 38-12.5 26.5-7 12.5l-0.5 1-0.3 0.2-0.2 0.3h-1l-1-0.5-1-0.5-1-0.5-1-0.5-1-0.5-1-0.5-1-0.5-1-0.5-1-0.5-1-0.5-1-0.5-1-0.5-0.2-0.3-0.3-0.2v-2l0.3-0.2 0.2-0.3 0.2-0.3q0.3-0.2 10.8-21.2t16-35.5 10-34.5 4.5-45.5z" fill="#bedcfa" stroke="#bedcfa"/>
  <path d="m384 436l0.5 1 0.3 1.5 0.2 1.5-2 0.2-2 0.3-8.5 0.5q-8.5 0.5-17.5 1.8-9 1.2-10.8-3.8-1.7-5-2.4-14.5l-0.8-9.5 17.5-2.5q17.5-2.5 21.3 10 3.7 12.5 4.2 13.5z" fill="#bedcfd" stroke="#bedcfd"/>
  <path d="m517.8 671.5l2.2-4.5h0.8q0.7 0 2.4 2.8 1.8 2.7 2.6 3.4 0.7 0.8 0.2 2.8t0.2 3.8q0.8 1.7 2 2 1.3 0.2 2 3.4 0.8 3.3 1.8 3 1-0.2 1.2 1.8l0.3 2 0.3-0.2 0.2-0.3 0.2-0.3 0.3-0.2 0.5-1 0.5-1 0.3 0.2 0.2 0.3 0.2 0.3 0.3 0.2 0.5-1q0.5-1 1 0.5l0.5 1.5 0.5-0.5q0.5-0.5 0.8 0l0.2 0.5-6.2 50q-6.3 50-6.8 54l-0.5 4-0.3 0.2-0.2 0.3 16-2q16-2 37.5-5.5t24.5-3.8l3-0.2v0.5l1.5 0.3 1.5 0.2-0.2 1-0.3 1-0.3 0.2-0.2 0.3-0.2 0.3-0.3 0.2v2l0.3-0.2 0.2-0.3 0.2-0.3 0.3-0.2 0.3 0.2 0.2 0.3 4 1q4 1 6.5 1.5l2.5 0.5-3 0.5-3 0.5 4 1q4 1 9 3t6.5 2.5l1.5 0.5 1.5 0.5 1.5 0.5-0.2 0.3-0.3 0.2v2l0.3 0.2 0.2 0.3 1 0.5 1 0.5v0.5h-0.5l-0.3 0.5-0.2 0.5-3 0.2q-3 0.3-51.5 7.8t-62.5 9-40.5-25l-26.5-26.5-0.2-0.3-0.3-0.2-0.3-0.2-0.2-0.3-0.2-0.3-0.3-0.2-0.3-0.2-0.2-0.3v-0.5l0.2-0.5 0.3-0.5 0.3 0.2 0.2 0.3 0.2 0.3 0.3 0.2 0.3 0.2 0.2 0.3h1l1-0.3 1-0.2 0.2-1 0.3-1 0.3-0.2 0.2-0.3 0.2-0.3 0.3-0.2 0.3-0.2q0.2-0.3-0.6-1-0.7-0.8 0.6-1.8 1.2-1 1.2-6t2-5.2q2-0.3 1.2-1.6-0.7-1.2-2-2-1.2-0.7-1.4-5.4l-0.3-4.8h1l0.3 0.5 0.2 0.5 1 0.2 1 0.3 0.2 0.3 0.3 0.2 0.5 1 0.5 1 0.3 0.2 0.2 0.3 0.2 0.3 0.3 0.2 8.7 9.5q8.8 9.5 12.6 12.5 3.7 3 4 3.2l0.2 0.3 0.2 0.3 0.3 0.2 0.3 0.2 0.2 0.3 0.2 0.3 0.3 0.2 0.3 0.2 0.2 0.3 0.2 0.3 0.3 0.2 0.3 0.2 0.2 0.3 0.2 0.3 0.3 0.2 0.3 0.2 0.2 0.3 1 0.3 1 0.2 0.2-3 0.3-3 0.5-3.5q0.5-3.5 7-48t8.8-49zm-53.8 74.5q0-1 1-1h1v1q0 1-1 1t-1-1z" fill="#010102" stroke="#010102"/>
  <path d="m461.5 473.2l1.5-2.2-0.2 3q-0.3 3-2.3 4.5t-2.3 1.7l-0.2 0.3-0.2 0.3-0.3 0.2-0.3 0.2-0.2 0.3 0.2 0.3 0.3 0.2 0.3 0.2 0.2 0.3 1 0.5 1 0.5 22 6.7q22 6.8 24.8 2.3 2.7-4.5 3.7-6t1.3-2.5l0.2-1h0.2q0.3 0 0.6-0.5l0.2-0.5 0.5-0.2q0.5-0.3 0.7-0.6l0.3-0.2 0.3-0.2 0.2-0.3 0.8-0.7q0.7-0.8 1 0.2 0.2 1 2.4 0 2.3-1 3.8 1t2 1 0.8 0q0.2 1 4.2 1.8 4 0.7 4 1v1.2l-10 17.2q-10 17.3-20 15.8t-20.2 18.8q-10.3 20.2-10.6 21.7l-0.2 1.5 24 12.2q24 12.3 25 12.8l1 0.5 0.2 0.3 0.3 0.2 0.3 0.2 0.2 0.3 1 0.5 1 0.5v2.5l-1-0.2-1-0.3-0.2-0.3-0.3-0.2-0.3-0.2-0.2-0.3-0.2-0.3-0.3-0.2-0.3 0.2-0.2 0.3-0.2 0.3-0.3 0.2-0.3 0.2-0.2 0.3-1 0.3q-1 0.2-1.2 1.2-0.3 1-3.6 2.2-3.2 1.3-3.7 3-0.5 1.8-2 2l-1.5 0.3-2 0.3-2 0.2-1-0.2q-1-0.3-37.8-19.6-36.7-19.2-52-23.4l-15.2-4.3-2-0.5-2-0.5v-0.5l1-0.2 1-0.3 1-0.3 1-0.2 0.2-1.5 0.3-1.5 0.5-1 0.5-1 0.3-0.2 0.2-0.3 14.8-1.3q14.7-1.2 15.7-7.7t1.3-7.5l0.2-1h2v-2l1 0.2 1 0.3 0.2 0.3 0.3 0.2 0.5 1 0.5 1 0.3-0.2 0.2-0.3 0.2-0.3 0.3-0.2 0.3-0.2 0.2-0.3 0.2-0.3 0.3-0.2h0.5l-0.2 1-0.3 1-1.5 4.5q-1.5 4.5-1.8 6.5l-0.2 2h1q1 0 1 1v1l1 0.2 1 0.3 1.5 0.5 1.5 0.5 1 0.5 1 0.5 1 0.5 1 0.5h3.5q3.5 0 13.3-17.3l9.7-17.2 0.3-1 0.2-1-1-0.2-1-0.3-1.5-0.5q-1.5-0.5-12.3-4.2l-10.7-3.8-0.3 0.2-0.2 0.3-0.2 0.3-0.3 0.2-0.5 1.5-0.5 1.5h-0.5l-0.2-2.5-0.3-2.5-0.3-0.2-0.2-0.3 0.2-0.3 0.3-0.2 0.3-1.5q0.2-1.5 2.7-1.7 2.5-0.3 4.3-9 1.7-8.8 4-8.8 2.2 0 2.2-1t1-1.2q1-0.3 2.5-2.6z" fill="#030305" stroke="#030305"/>
  <path d="m596.5 241l1.5-0.5 0.2-0.3 0.3-0.2v2l-0.3 0.2-0.2 0.3-0.2 0.3-0.3 0.2-0.3 0.2-0.2 0.3-0.2 0.3-0.3 0.2-0.3 0.2-0.2 0.3-0.2 0.3-0.3 0.2-0.5 1-0.5 1-5 10q-5 10-6 15.5t-1 9v3.5l0.3 1 0.2 1 1.2 6.5q1.3 6.5 5.6 14.3 4.2 7.7 4.4 8l0.3 0.2 0.3 0.2 0.2 0.3 0.2 0.3 0.3 0.2 0.3 0.2 0.2 0.3 0.2 0.3 0.3 0.2 0.3 0.2 0.2 0.3 0.2 0.3 0.3 0.2 0.3 0.2 0.2 0.3 0.2 0.3 0.3 0.2 0.3 0.2 0.2 0.3 0.2 0.3 0.3 0.2 0.3 0.2 0.2 0.3h-4l-1.5-0.5-1.5-0.5-1-0.5-1-0.5-1.5-0.5q-1.5-0.5-4-2t-7.5-6.8l-5-5.2-0.2-0.5q-0.3-0.5-0.6-0.5h-0.2l-0.2-1q-0.3-1-2.3-5.5t-2.5-13 0.5-13 6-12.5 11.7-12.2l6.8-4.3 1.5-0.5 1.5-0.5 1.5-0.5z" fill="#bedcfa" stroke="#bedcfa"/>
  <path d="m328.5 513.2l52.5 13.8-2 0.2q-2 0.3-5-0.2t-4.8 6.8q-1.7 7.2-2.4 5.7-0.8-1.5-1.8-1.3l-1 0.3-0.2 0.3-0.3 0.2v3l0.3 0.5 0.2 0.5-2-0.2q-2-0.3-13.5-2.8t-9.3-0.8l2.3 1.8 0.3 0.2 0.2 0.3 28.2 18.3q28.3 18.2 35.6 22.4 7.2 4.3 9.2 4.6l2 0.2v0.5l0.2 0.3 0.3 0.2 0.3 0.2 0.2 0.3-1 0.3-1 0.2-0.2 1-0.3 1-0.3 0.2-0.2 0.3-0.2 0.3-0.3 0.2-0.3 1-0.2 1-1 0.2-1 0.3 1 0.5 1 0.5-0.2 0.3-0.3 0.2-0.3 1-0.2 1-2 0.2-2 0.3v0.5l-0.5-0.2q-0.5-0.3-58.5-36.3l-58-36-0.2-0.3-0.3-0.2-0.3-0.2-0.2-0.3-1-0.5-1-0.5h-2l-0.2 0.3-0.3 0.2-0.5 1.5-0.5 1.5-0.5 1-0.5 1v2l0.3 0.2 0.2 0.3 0.2 0.3 0.3 0.2 0.3 0.2 0.2 0.3 1 0.5 1 0.5 40.5 28q40.5 28 57 39t18.5 11.5 4.5 1l2.5 0.5 2.5 0.5 2.5 0.5v0.5l-2 0.2-2 0.3-0.2 0.3-0.3 0.2-0.3 1-0.2 1-2 0.2q-2 0.3-1.8 0.6 0.3 0.2-0.7 1.2t-3.3 2q-2.2 1-2.2 2t-4 1h-4v5l2 0.2 2 0.3 0.2 0.3 0.3 0.2 0.3 0.2 0.2 0.3 0.2 0.3 0.3 0.2 0.3 0.5 0.2 0.5-2-0.2-2-0.3-1.5-0.5-1.5-0.5-0.2-0.3-0.3-0.2-0.3-0.2-0.2-0.3-0.2-0.3q-0.3-0.2-67-45.2-66.8-45-66.6-47 0.3-2 9.6-20.8 9.2-18.7 61.7-5z" fill="#040405" stroke="#040405"/>
  <path d="m717 452.5v-1.5l1.2 13q1.3 13 1.6 17.5l0.2 4.5h-0.2q-0.3 0-1.3-2t-1.7-1.2q-0.8 0.7-1.6-2-0.7-2.8-1.7-0.3t-1-6 1.3-14.5q1.2-6 2.2-6t1-1.5z" fill="#0a0a0a" stroke="#0a0a0a"/>
 </g>
</svg>
